{"glyphs":{"0":{"ha":799,"x_min":0,"x_max":0,"o":"m 399 871 b 35 433 207 871 35 764 b 399 -7 35 100 207 -7 b 763 433 590 -7 763 100 b 399 871 763 764 590 871 z m 399 198 b 271 433 298 198 271 307 b 399 668 271 557 298 668 b 526 433 500 668 526 557 b 399 198 526 307 500 198 z "},"1":{"ha":501,"x_min":0,"x_max":0,"o":"m 234 844 b 7 673 228 672 7 673 l 7 511 l 215 511 l 215 0 l 450 0 l 450 844 b 234 844 450 844 283 844 z "},"2":{"ha":764,"x_min":0,"x_max":0,"o":"m 295 205 b 720 600 397 332 720 258 b 395 860 720 809 563 860 b 54 578 201 860 68 781 l 287 578 b 393 676 292 658 341 676 b 489 589 446 676 489 654 b 26 0 489 412 26 495 l 725 0 l 725 205 z "},"3":{"ha":772,"x_min":0,"x_max":0,"o":"m 594 464 b 704 638 656 489 704 540 b 378 871 704 829 548 871 b 46 623 183 871 56 811 l 266 623 b 375 687 276 686 328 687 b 475 620 432 687 475 673 b 384 548 475 565 444 548 l 277 548 l 277 354 l 384 354 b 499 277 428 354 499 354 b 384 187 499 199 436 187 b 254 265 330 187 261 194 l 26 265 b 378 -7 31 63 166 -7 b 736 268 565 -7 736 47 b 594 464 736 393 670 444 z "},"4":{"ha":786,"x_min":0,"x_max":0,"o":"m 763 330 l 650 330 l 650 843 l 364 843 l 22 341 l 22 136 l 416 136 l 416 0 l 650 0 l 650 136 l 763 136 z m 237 330 l 416 606 l 416 330 z "},"5":{"ha":754,"x_min":0,"x_max":0,"o":"m 434 574 b 253 509 351 574 295 544 l 270 653 l 672 653 l 672 859 l 113 859 l 58 374 l 260 374 b 373 414 277 386 318 414 b 487 307 443 414 487 385 b 368 190 487 231 449 190 b 253 257 311 190 267 215 l 31 257 b 376 -3 37 84 180 -3 b 720 306 549 -3 720 64 b 434 574 720 532 572 574 z "},"6":{"ha":790,"x_min":0,"x_max":0,"o":"m 442 573 b 263 477 358 573 293 530 b 407 683 269 601 302 683 b 505 635 447 683 492 676 l 740 635 b 406 876 726 819 549 876 b 35 437 221 876 35 785 b 407 -3 35 87 215 -3 b 754 300 590 -3 754 65 b 442 573 754 506 624 573 z m 407 190 b 282 300 351 190 282 199 b 416 403 282 400 359 403 b 525 300 466 403 525 383 b 407 190 525 215 476 190 z "},"7":{"ha":703,"x_min":0,"x_max":0,"o":"m 10 843 l 10 637 l 461 637 b 141 0 372 565 157 370 l 386 0 b 691 637 422 405 610 565 l 691 843 z "},"8":{"ha":819,"x_min":0,"x_max":0,"o":"m 636 463 b 752 638 703 492 752 545 b 409 871 750 804 631 871 b 66 638 187 871 68 804 b 181 463 66 545 116 492 b 33 260 99 439 33 383 b 409 -7 33 19 226 -7 b 785 260 591 -7 785 19 b 636 463 785 383 718 439 z m 409 186 b 278 277 341 186 278 197 b 409 370 278 354 333 370 b 539 277 485 370 539 354 b 409 186 539 197 477 186 z m 409 691 b 522 606 472 691 522 679 b 409 530 522 532 453 530 b 296 606 365 530 296 532 b 409 691 296 679 346 691 z "},"9":{"ha":792,"x_min":0,"x_max":0,"o":"m 383 871 b 36 569 200 871 36 804 b 349 295 36 363 166 295 b 527 393 432 295 497 339 b 383 186 521 269 488 186 b 285 235 344 186 297 193 l 50 235 b 384 -7 64 49 241 -7 b 756 433 569 -7 756 83 b 383 871 756 781 575 871 z m 374 465 b 265 569 325 465 265 486 b 383 679 265 653 315 679 b 508 569 440 679 508 669 b 374 465 508 470 432 465 z "},"\u0000":{"ha":0,"x_min":0,"x_max":0,"o":""},"\n":{"ha":0,"x_min":0,"x_max":0,"o":""},"\r":{"ha":0,"x_min":0,"x_max":0,"o":""}," ":{"ha":485,"x_min":0,"x_max":0,"o":""},"!":{"ha":358,"x_min":0,"x_max":0,"o":"m 272 327 l 307 862 l 51 862 l 86 327 z m 179 236 b 65 118 116 236 65 182 b 179 0 65 53 116 0 b 293 118 242 0 293 53 b 179 236 293 182 242 236 z "},"\"":{"ha":603,"x_min":0,"x_max":0,"o":"m 86 470 l 223 470 l 257 865 l 51 865 z m 345 865 l 380 470 l 518 470 l 552 865 z "},"#":{"ha":938,"x_min":0,"x_max":0,"o":"m 887 495 l 887 620 l 764 620 l 813 821 l 661 821 l 611 620 l 443 620 l 494 821 l 341 821 l 290 620 l 113 620 l 113 495 l 259 495 l 218 327 l 51 327 l 51 202 l 186 202 l 136 0 l 289 0 l 338 202 l 506 202 l 456 0 l 608 0 l 659 202 l 825 202 l 825 327 l 690 327 l 732 495 z m 537 327 l 371 327 l 412 495 l 579 495 z "},"$":{"ha":940,"x_min":0,"x_max":0,"o":"m 889 276 b 516 543 889 497 739 515 l 516 661 b 577 594 559 651 577 629 l 845 594 b 516 868 845 743 758 852 l 516 989 l 425 989 l 425 869 b 70 594 184 862 70 773 b 366 329 70 421 155 363 b 425 321 388 327 407 323 l 425 197 b 328 282 357 205 328 229 l 51 282 b 425 -8 51 108 152 1 l 425 -129 l 516 -129 l 516 -8 b 889 276 751 0 889 68 z m 332 609 b 425 666 332 640 355 661 l 425 555 b 332 609 360 564 332 575 z m 516 196 l 516 305 b 607 251 593 292 607 282 b 516 196 607 216 580 199 z "},"%":{"ha":1149,"x_min":0,"x_max":0,"o":"m 513 617 b 282 860 513 787 425 860 b 51 617 140 860 51 787 b 282 376 51 449 140 376 b 513 617 425 376 513 449 z m 282 510 b 218 617 236 510 218 553 b 282 726 218 682 236 726 b 346 617 329 726 346 682 b 282 510 346 553 329 510 z m 725 843 l 295 -1 l 423 -1 l 852 843 z m 865 465 b 635 223 723 465 635 392 b 865 -19 635 54 723 -19 b 1097 223 1008 -19 1097 54 b 865 465 1097 392 1008 465 z m 865 115 b 801 223 819 115 801 158 b 865 332 801 288 819 332 b 930 223 912 332 930 288 b 865 115 930 158 912 115 z "},"&":{"ha":1025,"x_min":0,"x_max":0,"o":"m 707 3 l 974 3 b 804 178 925 54 866 114 b 872 424 849 251 872 337 l 684 424 b 668 317 684 386 679 350 b 593 394 643 343 618 368 b 543 441 577 409 560 426 b 763 653 659 462 763 512 b 457 864 763 807 625 864 b 152 642 290 864 152 807 b 230 474 152 577 179 531 b 51 253 135 437 51 374 b 437 -15 51 85 177 -15 b 667 43 528 -15 604 7 b 707 3 679 30 693 16 z m 448 156 b 291 276 343 156 291 203 b 333 370 291 312 302 343 b 363 339 343 360 352 350 b 534 170 412 289 465 237 b 448 156 509 161 480 156 z m 457 694 b 531 634 510 694 531 670 b 437 544 531 583 488 559 b 391 630 409 576 391 603 b 457 694 391 667 414 694 z "},"'":{"ha":308,"x_min":0,"x_max":0,"o":"m 51 865 l 86 469 l 224 469 l 258 865 z "},"(":{"ha":522,"x_min":0,"x_max":0,"o":"m 471 980 l 306 980 b 51 430 217 898 51 732 b 306 -119 51 129 217 -36 l 471 -119 b 278 430 385 -26 278 167 b 471 980 278 694 385 887 z "},")":{"ha":521,"x_min":0,"x_max":0,"o":"m 217 976 l 51 976 b 244 426 137 883 244 690 b 51 -123 244 162 137 -31 l 217 -123 b 470 426 306 -40 470 125 b 217 976 470 728 306 894 z "},"*":{"ha":597,"x_min":0,"x_max":0,"o":"m 546 636 l 503 766 l 351 700 l 367 865 l 230 865 l 247 700 l 95 766 l 51 636 l 214 600 l 103 476 l 215 395 l 298 538 l 383 395 l 494 476 l 384 600 z "},"+":{"ha":657,"x_min":0,"x_max":0,"o":"m 606 493 l 403 493 l 403 695 l 254 695 l 254 493 l 51 493 l 51 343 l 254 343 l 254 141 l 403 141 l 403 343 l 606 343 z "},",":{"ha":367,"x_min":0,"x_max":0,"o":"m 98 151 l 51 -138 l 198 -138 l 315 151 z "},"-":{"ha":483,"x_min":0,"x_max":0,"o":"m 51 545 l 51 351 l 431 351 l 431 545 z "},".":{"ha":340,"x_min":0,"x_max":0,"o":"m 171 217 b 51 97 104 217 51 162 b 171 -22 51 31 104 -22 b 289 97 236 -22 289 31 b 171 217 289 162 236 217 z "},"/":{"ha":682,"x_min":0,"x_max":0,"o":"m 446 933 l 51 -2 l 237 -2 l 631 933 z "},":":{"ha":340,"x_min":0,"x_max":0,"o":"m 171 395 b 289 514 236 395 289 449 b 171 633 289 580 236 633 b 51 514 104 633 51 580 b 171 395 51 449 104 395 z m 171 194 b 51 75 104 194 51 140 b 171 -44 51 9 104 -44 b 289 75 236 -44 289 9 b 171 194 289 140 236 194 z "},";":{"ha":379,"x_min":0,"x_max":0,"o":"m 51 -138 l 200 -138 l 315 151 l 100 151 z m 208 395 b 327 514 274 395 327 449 b 208 633 327 580 274 633 b 89 514 142 633 89 580 b 208 395 89 449 142 395 z "},"<":{"ha":565,"x_min":0,"x_max":0,"o":"m 514 750 l 51 503 l 51 338 l 514 91 l 514 285 l 230 420 l 514 555 z "},"=":{"ha":658,"x_min":0,"x_max":0,"o":"m 51 602 l 51 454 l 607 454 l 607 602 z m 51 225 l 607 225 l 607 374 l 51 374 z "},">":{"ha":565,"x_min":0,"x_max":0,"o":"m 51 750 l 51 555 l 336 420 l 51 285 l 51 91 l 514 338 l 514 503 z "},"?":{"ha":772,"x_min":0,"x_max":0,"o":"m 376 862 b 51 582 192 862 63 796 l 275 582 b 386 678 283 664 336 678 b 483 608 430 678 483 669 b 264 310 483 475 264 540 l 473 310 b 721 617 473 453 721 371 b 376 862 721 815 572 862 z m 371 219 b 257 101 308 219 257 166 b 371 -17 257 36 308 -17 b 485 101 434 -17 485 36 b 371 219 485 166 434 219 z "},"@":{"ha":1149,"x_min":0,"x_max":0,"o":"m 587 863 b 51 288 278 863 51 650 b 594 -289 51 -67 273 -289 b 866 -222 726 -289 835 -241 l 866 -70 b 594 -149 816 -104 716 -149 b 195 288 344 -149 195 18 b 587 722 195 569 347 722 b 963 350 798 722 963 622 b 889 122 963 194 931 122 b 850 222 850 122 850 153 l 850 554 l 666 554 l 666 498 b 513 569 631 544 581 569 b 288 281 382 569 288 466 b 513 -6 288 96 385 -6 b 694 118 603 -6 663 39 b 871 -8 711 39 766 -8 b 1098 360 983 -8 1098 96 b 587 863 1098 686 870 863 z m 575 154 b 473 281 504 154 473 211 b 575 409 473 351 504 409 b 681 282 647 409 681 358 b 575 154 681 206 647 154 z "},"A":{"ha":896,"x_min":0,"x_max":0,"o":"m 636 0 l 910 0 l 598 844 l 297 844 l -15 0 l 260 0 l 297 119 l 598 119 z m 367 336 l 448 594 l 529 336 z "},"B":{"ha":863,"x_min":0,"x_max":0,"o":"m 692 441 l 692 445 b 813 628 766 472 813 525 b 533 844 813 810 701 844 l 51 844 l 51 0 l 512 0 b 838 247 729 0 838 47 b 692 441 838 358 779 415 z m 490 638 b 554 583 539 638 554 618 b 490 524 554 547 539 524 l 317 524 l 317 638 z m 501 205 l 317 205 l 317 329 l 501 329 b 570 270 554 329 570 310 b 501 205 570 230 555 205 z "},"C":{"ha":910,"x_min":0,"x_max":0,"o":"m 458 198 b 288 422 342 198 288 281 b 458 645 288 562 342 645 b 622 486 560 645 609 581 l 893 486 b 458 861 863 764 671 861 b 19 422 234 861 19 752 b 458 -18 19 90 234 -18 b 893 357 671 -18 863 78 l 622 357 b 458 198 609 263 560 198 z "},"D":{"ha":876,"x_min":0,"x_max":0,"o":"m 421 844 l 51 844 l 51 0 l 421 0 b 855 422 643 0 855 59 b 421 844 855 783 643 844 z m 360 217 l 317 217 l 317 626 l 360 626 b 587 422 496 626 587 630 b 360 217 587 213 496 217 z "},"E":{"ha":799,"x_min":0,"x_max":0,"o":"m 763 217 l 317 217 l 317 324 l 727 324 l 727 530 l 317 530 l 317 626 l 754 626 l 754 844 l 51 844 l 51 0 l 763 0 z "},"F":{"ha":771,"x_min":0,"x_max":0,"o":"m 754 626 l 754 844 l 51 844 l 51 0 l 317 0 l 317 301 l 726 301 l 726 507 l 317 507 l 317 626 z "},"G":{"ha":949,"x_min":0,"x_max":0,"o":"m 447 501 l 447 295 l 644 295 b 484 198 631 256 589 198 b 286 422 363 198 286 281 b 466 645 286 562 342 645 b 625 562 557 645 599 607 l 895 562 b 466 861 854 770 673 861 b 18 422 244 861 18 759 b 481 -18 18 83 252 -18 b 744 116 612 -18 697 31 l 744 0 l 911 0 l 911 501 z "},"H":{"ha":936,"x_min":0,"x_max":0,"o":"m 618 844 l 618 553 l 317 553 l 317 844 l 51 844 l 51 0 l 317 0 l 317 312 l 618 312 l 618 0 l 883 0 l 883 844 z "},"I":{"ha":368,"x_min":0,"x_max":0,"o":"m 51 844 l 51 0 l 317 0 l 317 844 z "},"J":{"ha":785,"x_min":0,"x_max":0,"o":"m 477 844 l 477 365 b 373 198 477 271 462 198 b 257 341 281 198 257 253 l 257 445 l 8 446 l 8 327 b 373 -18 8 37 162 -18 b 742 365 576 -18 742 19 l 742 844 z "},"K":{"ha":872,"x_min":0,"x_max":0,"o":"m 571 0 l 883 0 l 575 507 l 870 844 l 541 844 l 317 576 l 317 844 l 51 844 l 51 0 l 317 0 l 317 215 l 397 305 z "},"L":{"ha":749,"x_min":0,"x_max":0,"o":"m 753 217 l 317 217 l 317 844 l 51 844 l 51 0 l 753 0 z "},"M":{"ha":1125,"x_min":0,"x_max":0,"o":"m 711 844 l 562 321 l 413 844 l 51 844 l 51 0 l 317 0 l 317 474 l 452 0 l 672 0 l 807 474 l 807 0 l 1072 0 l 1072 844 z "},"N":{"ha":917,"x_min":0,"x_max":0,"o":"m 600 844 l 600 384 l 330 844 l 51 844 l 51 0 l 317 0 l 317 458 l 586 0 l 865 0 l 865 844 z "},"O":{"ha":951,"x_min":0,"x_max":0,"o":"m 475 861 b 18 422 247 861 18 751 b 475 -18 18 92 247 -18 b 933 422 704 -18 933 92 b 475 861 933 751 704 861 z m 475 198 b 286 422 352 198 286 286 b 475 645 286 557 352 645 b 664 422 599 645 664 557 b 475 198 664 286 599 198 z "},"P":{"ha":835,"x_min":0,"x_max":0,"o":"m 531 844 l 51 844 l 51 0 l 317 0 l 317 251 l 513 251 b 825 552 699 251 825 327 b 531 844 825 742 732 844 z m 475 466 l 317 466 l 317 626 l 475 626 b 560 550 532 626 560 603 b 475 466 560 492 532 466 z "},"Q":{"ha":957,"x_min":0,"x_max":0,"o":"m 933 422 b 476 861 933 751 705 861 b 18 422 248 861 18 751 b 476 -18 18 92 248 -18 b 668 12 542 -18 608 -8 l 687 -12 l 933 -12 l 832 118 b 933 422 894 187 933 286 z m 476 198 b 287 422 353 198 287 286 b 476 645 287 557 353 645 b 665 422 599 645 665 557 b 656 343 665 393 662 368 l 536 478 l 396 341 l 520 203 b 476 198 507 199 491 198 z "},"R":{"ha":869,"x_min":0,"x_max":0,"o":"m 591 154 b 596 0 591 26 596 0 b 854 0 596 0 813 0 b 844 253 844 62 844 131 b 707 368 844 335 769 368 b 853 573 794 374 853 443 b 559 844 853 766 753 844 l 51 844 l 51 0 l 317 0 l 317 263 b 490 263 317 263 419 263 b 591 154 553 263 591 240 z m 317 626 l 502 626 b 587 556 559 626 587 607 b 502 479 587 501 559 479 l 317 479 z "},"S":{"ha":878,"x_min":0,"x_max":0,"o":"m 473 535 b 301 600 351 551 301 554 b 424 658 301 635 331 658 b 546 586 513 658 546 634 l 814 586 b 426 861 814 745 713 861 b 39 586 165 861 39 771 b 335 321 39 411 125 354 b 576 242 548 287 576 287 b 451 186 576 201 539 186 b 298 274 342 186 298 209 l 21 274 b 435 -18 21 90 131 -18 b 859 268 701 -18 859 45 b 473 535 859 492 703 506 z "},"T":{"ha":763,"x_min":0,"x_max":0,"o":"m 769 844 l -7 844 l -7 626 l 249 626 l 249 0 l 514 0 l 514 626 l 769 626 z "},"U":{"ha":871,"x_min":0,"x_max":0,"o":"m 563 844 l 563 363 b 435 198 563 240 527 198 b 307 363 344 198 307 240 l 307 844 l 42 844 l 42 347 b 435 -18 42 16 227 -18 b 828 347 644 -18 828 16 l 828 844 z "},"V":{"ha":890,"x_min":0,"x_max":0,"o":"m 632 844 l 445 248 l 257 844 l -18 844 l 294 0 l 595 0 l 907 844 z "},"W":{"ha":1190,"x_min":0,"x_max":0,"o":"m 925 844 l 815 320 l 705 844 l 485 844 l 375 320 l 265 844 l -10 844 l 211 0 l 494 0 l 595 465 l 696 0 l 979 0 l 1199 844 z "},"X":{"ha":857,"x_min":0,"x_max":0,"o":"m 588 440 l 846 844 l 538 844 l 429 633 l 319 844 l 11 844 l 270 440 l -14 0 l 295 0 l 429 247 l 563 0 l 870 0 z "},"Y":{"ha":842,"x_min":0,"x_max":0,"o":"m 576 844 l 420 529 l 265 844 l -25 844 l 287 299 l 287 0 l 554 0 l 554 299 l 866 844 z "},"Z":{"ha":832,"x_min":0,"x_max":0,"o":"m 357 217 l 801 671 l 801 844 l 35 844 l 35 626 l 461 626 l 17 171 l 17 0 l 811 0 l 811 217 z "},"[":{"ha":506,"x_min":0,"x_max":0,"o":"m 454 867 l 454 1027 l 51 1027 l 51 -171 l 454 -171 l 454 -12 l 268 -12 l 268 867 z "},"\\":{"ha":682,"x_min":0,"x_max":0,"o":"m 237 933 l 51 933 l 444 -2 l 631 -2 z "},"]":{"ha":504,"x_min":0,"x_max":0,"o":"m 51 1027 l 51 867 l 236 867 l 236 -12 l 51 -12 l 51 -171 l 453 -171 l 453 1027 z "},"_":{"ha":814,"x_min":0,"x_max":0,"o":"m 51 134 l 51 -4 l 762 -4 l 762 134 z "},"a":{"ha":710,"x_min":0,"x_max":0,"o":"m 349 656 b 49 444 177 656 67 601 l 261 444 b 349 497 268 484 297 497 b 433 408 416 497 433 467 l 433 393 b 21 174 93 413 21 324 b 245 -21 21 42 99 -21 b 433 61 337 -21 398 18 l 433 -3 l 670 -3 l 670 408 b 349 656 670 620 518 657 z m 433 173 b 315 121 407 143 366 121 b 248 179 284 121 248 130 b 433 243 248 246 314 250 z "},"b":{"ha":761,"x_min":0,"x_max":0,"o":"m 462 657 b 284 573 383 657 324 628 l 284 841 l 46 841 l 46 -3 l 284 -3 l 284 62 b 462 -21 324 8 383 -21 b 739 318 621 -21 739 100 b 462 657 739 536 621 656 z m 390 168 b 266 318 304 168 266 229 b 390 468 266 407 304 468 b 511 318 474 468 511 401 b 390 168 511 236 474 168 z "},"c":{"ha":724,"x_min":0,"x_max":0,"o":"m 369 178 b 248 328 286 178 248 241 b 369 478 248 414 286 478 b 483 387 432 478 469 442 l 706 387 b 369 666 681 600 524 666 b 19 328 201 666 19 589 b 369 -11 19 67 201 -11 b 706 270 524 -11 681 55 l 483 270 b 369 178 469 214 432 178 z "},"d":{"ha":761,"x_min":0,"x_max":0,"o":"m 21 318 b 297 -21 21 100 138 -21 b 476 62 377 -21 435 8 l 476 -3 l 714 -3 l 714 841 l 476 841 l 476 573 b 297 656 435 628 377 656 b 21 318 138 656 21 536 z m 249 318 b 370 468 249 401 286 468 b 494 318 455 468 494 407 b 370 168 494 229 455 168 b 249 318 286 168 249 236 z "},"e":{"ha":707,"x_min":0,"x_max":0,"o":"m 244 269 l 688 269 b 358 666 702 567 514 666 b 18 328 192 666 18 576 b 363 -11 18 79 194 -11 b 680 224 507 -11 648 48 l 464 224 b 363 166 444 189 412 166 b 244 268 293 166 256 208 z m 358 489 b 464 394 419 489 451 453 l 245 394 b 358 489 258 449 291 489 z "},"f":{"ha":460,"x_min":0,"x_max":0,"o":"m 472 710 l 472 881 b 352 890 435 885 396 890 b 92 642 160 890 92 826 l 7 642 l 7 482 l 92 482 l 92 0 l 329 0 l 329 482 l 463 482 l 463 642 l 329 642 b 472 710 329 724 396 714 z "},"g":{"ha":763,"x_min":0,"x_max":0,"o":"m 478 648 l 478 585 b 299 666 438 639 379 666 b 22 321 140 666 22 560 b 317 -11 22 83 158 -11 b 478 59 391 -11 443 14 l 478 -1 b 348 -112 478 -115 404 -112 b 253 -61 311 -112 262 -107 l 36 -61 b 348 -299 40 -203 122 -299 b 715 54 540 -299 715 -219 l 715 648 z m 372 183 b 252 321 290 183 252 234 b 372 461 252 408 292 461 b 497 321 451 461 497 415 b 372 183 497 229 454 183 z "},"h":{"ha":725,"x_min":0,"x_max":0,"o":"m 464 659 b 282 563 361 659 307 605 l 282 844 l 44 844 l 44 0 l 282 0 l 282 336 b 366 460 282 409 297 460 b 448 336 437 460 448 407 l 448 0 l 686 0 l 686 397 b 464 659 686 572 611 659 z "},"i":{"ha":326,"x_min":0,"x_max":0,"o":"m 163 691 b 285 814 235 691 285 736 b 163 939 285 894 235 939 b 42 814 92 939 42 894 b 163 691 42 736 92 691 z m 45 0 l 282 0 l 282 642 l 45 642 z "},"j":{"ha":332,"x_min":0,"x_max":0,"o":"m 47 649 l 47 53 b -40 -14 47 -11 25 -15 l -40 -212 b 50 -217 -6 -216 8 -217 b 285 53 247 -217 285 -136 l 285 649 z m 166 698 b 288 821 237 698 288 743 b 166 946 288 901 237 946 b 45 821 95 946 45 901 b 166 698 45 743 95 698 z "},"k":{"ha":700,"x_min":0,"x_max":0,"o":"m 434 0 l 708 0 l 480 383 l 697 642 l 411 642 l 283 469 l 283 844 l 44 844 l 44 0 l 283 0 l 283 146 l 328 200 z "},"l":{"ha":326,"x_min":0,"x_max":0,"o":"m 44 844 l 44 0 l 282 0 l 282 844 z "},"m":{"ha":1057,"x_min":0,"x_max":0,"o":"m 804 659 b 624 558 707 659 650 600 b 446 659 594 626 537 659 b 282 556 354 659 305 600 l 282 642 l 44 642 l 44 0 l 282 0 l 282 336 b 349 460 282 406 285 460 b 412 336 413 460 412 403 l 412 0 l 649 0 l 649 336 b 716 460 649 406 653 460 b 779 336 780 460 779 403 l 779 0 l 1017 0 l 1017 397 b 804 659 1017 572 952 659 z "},"n":{"ha":725,"x_min":0,"x_max":0,"o":"m 464 659 b 282 563 361 659 307 605 l 282 642 l 44 642 l 44 0 l 282 0 l 282 336 b 366 460 282 409 297 460 b 448 336 437 460 448 407 l 448 0 l 686 0 l 686 397 b 464 659 686 572 611 659 z "},"o":{"ha":739,"x_min":0,"x_max":0,"o":"m 369 666 b 19 328 202 666 19 589 b 369 -11 19 67 202 -11 b 718 328 537 -11 718 67 b 369 666 718 589 537 666 z m 369 178 b 248 328 286 178 248 241 b 369 478 248 414 286 478 b 490 328 452 478 490 414 b 369 178 490 241 452 178 z "},"p":{"ha":761,"x_min":0,"x_max":0,"o":"m 739 328 b 462 666 739 546 621 666 b 283 583 383 666 324 637 l 283 649 l 46 649 l 46 -194 l 283 -194 l 283 72 b 462 -11 324 18 383 -11 b 739 328 621 -11 739 109 z m 511 328 b 389 178 511 246 474 178 b 265 328 304 178 265 238 b 389 478 265 418 304 478 b 511 328 474 478 511 411 z "},"q":{"ha":760,"x_min":0,"x_max":0,"o":"m 297 -11 b 476 72 377 -11 435 18 l 476 -194 l 713 -194 l 713 649 l 476 649 l 476 583 b 297 666 435 637 377 666 b 21 328 137 666 21 546 b 297 -11 21 109 137 -11 z m 370 478 b 494 328 455 478 494 418 b 370 178 494 238 455 178 b 249 328 286 178 249 246 b 370 478 249 411 286 478 z "},"r":{"ha":531,"x_min":0,"x_max":0,"o":"m 451 659 b 282 544 336 659 303 591 l 282 642 l 44 642 l 44 0 l 282 0 l 282 262 b 399 440 282 366 287 440 b 504 416 446 440 478 425 l 525 416 l 525 654 b 451 659 502 657 491 659 z "},"s":{"ha":719,"x_min":0,"x_max":0,"o":"m 395 420 b 262 467 306 434 262 430 b 348 508 262 502 302 508 b 438 454 396 508 438 496 l 670 454 b 350 666 670 584 569 666 b 38 453 157 666 38 602 b 278 254 38 311 129 278 b 457 194 404 235 457 240 b 369 148 457 155 414 148 b 262 216 317 148 262 152 l 18 216 b 359 -11 18 55 142 -11 b 700 212 561 -11 700 36 b 395 420 700 387 568 395 z "},"t":{"ha":510,"x_min":0,"x_max":0,"o":"m 484 479 l 484 640 l 334 640 l 334 806 l 97 806 l 97 640 l 1 640 l 1 479 l 97 479 l 97 265 b 377 -14 97 35 167 -14 b 484 -4 413 -14 453 -9 l 484 188 b 334 265 356 179 334 185 l 334 479 z "},"u":{"ha":725,"x_min":0,"x_max":0,"o":"m 259 -21 b 441 75 362 -21 416 33 l 441 -4 l 679 -4 l 679 638 l 441 638 l 441 302 b 357 178 441 230 426 178 b 275 302 286 178 275 231 l 275 638 l 38 638 l 38 242 b 259 -21 38 66 112 -21 z "},"v":{"ha":682,"x_min":0,"x_max":0,"o":"m 449 642 l 341 292 l 233 642 l -11 642 l 228 0 l 454 0 l 693 642 z "},"w":{"ha":1018,"x_min":0,"x_max":0,"o":"m 783 642 l 698 316 l 607 642 l 410 642 l 318 316 l 234 642 l -10 642 l 202 0 l 414 0 l 508 329 l 603 0 l 815 0 l 1027 642 z "},"x":{"ha":700,"x_min":0,"x_max":0,"o":"m 486 325 l 694 642 l 429 642 l 349 487 l 270 642 l 5 642 l 212 325 l -10 0 l 255 0 l 349 164 l 443 0 l 709 0 z "},"y":{"ha":681,"x_min":0,"x_max":0,"o":"m 447 649 l 343 302 l 231 649 l -12 649 l 233 12 l 142 -194 l 383 -194 l 691 649 z "},"z":{"ha":682,"x_min":0,"x_max":0,"o":"m 658 182 l 321 182 l 648 471 l 648 642 l 40 642 l 40 459 l 349 459 l 21 171 l 21 0 l 658 0 z "}," ":{"ha":485,"x_min":0,"x_max":0,"o":""},"¡":{"ha":358,"x_min":0,"x_max":0,"o":"m 51 -166 l 307 -166 l 272 369 l 86 369 z m 179 464 b 293 579 242 464 293 515 b 179 694 293 643 242 694 b 65 579 116 694 65 643 b 179 464 65 515 116 464 z "},"¢":{"ha":789,"x_min":0,"x_max":0,"o":"m 450 280 l 450 562 b 515 479 483 547 505 519 l 738 479 b 450 757 715 670 587 744 l 450 843 l 358 843 l 358 757 b 51 421 204 745 51 660 b 358 83 51 182 204 97 l 358 -1 l 450 -1 l 450 85 b 738 362 587 98 715 170 l 515 362 b 450 280 505 323 483 293 z m 280 421 b 358 564 280 491 305 545 l 358 277 b 280 421 305 296 280 350 z "},"£":{"ha":817,"x_min":0,"x_max":0,"o":"m 703 255 b 568 197 674 224 632 197 b 367 221 496 197 451 221 b 282 199 340 221 311 213 l 280 204 b 351 345 318 245 347 292 l 545 345 l 545 460 l 339 460 b 314 580 328 498 314 522 b 416 680 314 641 341 680 b 507 560 487 680 507 629 l 748 560 b 411 865 748 782 616 865 b 76 586 240 865 76 798 b 100 460 76 533 87 495 l 51 460 l 51 345 l 137 345 b 140 302 139 332 140 318 b 51 136 140 232 115 184 l 122 -19 b 275 40 143 -2 191 40 b 581 -14 387 40 463 -14 b 766 58 679 -14 747 37 z "},"¥":{"ha":993,"x_min":0,"x_max":0,"o":"m 941 841 l 651 841 l 496 528 l 341 841 l 51 841 l 305 399 l 189 399 l 189 284 l 364 284 l 364 250 l 189 250 l 189 135 l 364 135 l 364 -2 l 629 -2 l 629 135 l 802 135 l 802 250 l 629 250 l 629 284 l 802 284 l 802 399 l 688 399 z "},"©":{"ha":981,"x_min":0,"x_max":0,"o":"m 490 879 b 51 440 248 879 51 691 b 490 0 51 189 248 0 b 928 440 732 0 928 189 b 490 879 928 691 732 879 z m 490 81 b 138 440 295 81 138 235 b 490 799 138 644 295 799 b 841 440 685 799 841 644 b 490 81 841 235 685 81 z m 491 328 b 406 440 434 328 406 369 b 491 552 406 510 434 552 b 572 472 541 552 565 519 l 707 472 b 491 659 692 612 597 659 b 273 440 379 659 273 605 b 491 219 273 274 379 219 b 707 407 597 219 692 268 l 572 407 b 491 328 565 360 541 328 z "},"­":{"ha":0,"x_min":0,"x_max":0,"o":""},"®":{"ha":979,"x_min":0,"x_max":0,"o":"m 489 879 b 51 440 248 879 51 691 b 489 0 51 189 248 0 b 927 440 730 0 927 189 b 489 879 927 691 730 879 z m 489 81 b 137 440 295 81 137 235 b 489 799 137 644 295 799 b 840 440 683 799 840 644 b 489 81 840 235 683 81 z m 705 513 b 561 652 705 607 656 652 l 301 652 l 301 239 l 432 239 l 432 368 l 513 368 l 577 239 l 715 239 l 638 388 b 705 513 680 409 705 448 z m 432 545 l 532 545 b 574 511 561 545 574 536 b 532 472 574 485 561 472 l 432 472 z "},"°":{"ha":486,"x_min":0,"x_max":0,"o":"m 243 865 b 51 673 135 865 51 783 b 243 482 51 565 135 482 b 435 673 353 482 435 565 b 243 865 435 783 353 865 z m 243 573 b 143 673 184 573 143 615 b 243 773 143 732 184 773 b 343 673 303 773 343 732 b 243 573 343 615 303 573 z "},"¿":{"ha":772,"x_min":0,"x_max":0,"o":"m 721 96 l 497 96 b 386 0 489 14 436 0 b 289 70 342 0 289 10 b 508 369 289 202 508 137 l 299 369 b 51 61 299 225 51 307 b 396 -183 51 -138 200 -183 b 721 96 580 -183 709 -117 z m 400 464 b 515 579 464 464 515 515 b 400 694 515 643 464 694 b 287 579 338 694 287 643 b 400 464 287 515 338 464 z "},"À":{"ha":1028,"x_min":0,"x_max":0,"o":"m 702 0 l 977 0 l 665 843 l 364 843 l 51 0 l 326 0 l 364 119 l 665 119 z m 525 1090 l 287 1090 l 424 912 l 607 912 z m 433 336 l 514 594 l 595 336 z "},"Á":{"ha":1028,"x_min":0,"x_max":0,"o":"m 702 0 l 977 0 l 665 844 l 364 844 l 51 0 l 326 0 l 364 119 l 665 119 z m 505 1091 l 422 912 l 605 912 l 742 1091 z m 433 336 l 514 594 l 595 336 z "},"Â":{"ha":1028,"x_min":0,"x_max":0,"o":"m 702 0 l 977 0 l 665 843 l 364 843 l 51 0 l 326 0 l 364 119 l 665 119 z m 640 1090 l 390 1090 l 246 912 l 449 912 l 515 1005 l 581 912 l 783 912 z m 433 336 l 514 594 l 595 336 z "},"Ã":{"ha":1028,"x_min":0,"x_max":0,"o":"m 702 0 l 977 0 l 665 844 l 364 844 l 51 0 l 326 0 l 364 120 l 665 120 z m 603 1097 b 580 1050 603 1075 604 1050 b 396 1103 535 1050 486 1103 b 289 907 315 1103 289 1014 l 426 907 b 451 952 426 931 428 952 b 632 899 490 952 540 899 b 739 1097 726 899 739 1009 z m 433 337 l 514 594 l 595 337 z "},"Ä":{"ha":1028,"x_min":0,"x_max":0,"o":"m 702 0 l 977 0 l 665 844 l 364 844 l 51 0 l 326 0 l 364 119 l 665 119 z m 392 1132 b 301 1020 342 1132 301 1081 b 392 908 301 957 342 908 b 481 1020 441 908 481 957 b 392 1132 481 1081 441 1132 z m 433 336 l 514 594 l 595 336 z m 638 1132 b 547 1020 587 1132 547 1081 b 638 908 547 957 588 908 b 727 1020 687 908 727 957 b 638 1132 727 1081 687 1132 z "},"Å":{"ha":1028,"x_min":0,"x_max":0,"o":"m 702 0 l 977 0 l 665 844 l 364 844 l 51 0 l 326 0 l 364 119 l 665 119 z m 514 1227 b 379 1057 436 1227 379 1152 b 514 888 379 962 436 888 b 649 1057 593 888 649 962 b 514 1227 649 1152 593 1227 z m 433 336 l 514 594 l 595 336 z m 514 1003 b 471 1057 487 1003 471 1024 b 514 1112 471 1091 487 1112 b 559 1057 541 1112 559 1091 b 514 1003 559 1024 541 1003 z "},"Æ":{"ha":1390,"x_min":0,"x_max":0,"o":"m 1339 217 l 892 217 l 892 324 l 1302 324 l 1302 530 l 892 530 l 892 627 l 1330 627 l 1330 844 l 482 844 l 51 0 l 326 0 l 381 119 l 627 119 l 627 0 l 1339 0 z m 613 627 l 627 627 l 627 336 l 480 336 z "},"Ç":{"ha":976,"x_min":0,"x_max":0,"o":"m 490 193 b 319 417 374 193 319 276 b 490 640 319 557 374 640 b 654 481 592 640 641 576 l 925 481 b 490 855 895 760 703 855 b 51 417 266 855 51 747 b 438 -21 51 112 234 -5 l 406 -75 l 406 -140 b 529 -156 451 -133 529 -114 b 469 -188 529 -180 511 -188 b 382 -168 439 -188 401 -177 l 382 -267 b 507 -285 418 -276 462 -285 b 690 -156 604 -285 690 -261 b 524 -59 690 -41 590 -40 l 548 -21 b 925 352 737 -4 898 99 l 654 352 b 490 193 641 258 592 193 z "},"È":{"ha":814,"x_min":0,"x_max":0,"o":"m 763 0 l 763 217 l 317 217 l 317 324 l 727 324 l 727 530 l 317 530 l 317 625 l 754 625 l 754 843 l 51 843 l 51 0 z m 437 1090 l 199 1090 l 336 912 l 519 912 z "},"É":{"ha":814,"x_min":0,"x_max":0,"o":"m 763 0 l 763 217 l 317 217 l 317 324 l 727 324 l 727 530 l 317 530 l 317 625 l 754 625 l 754 844 l 51 844 l 51 0 z m 388 1091 l 305 912 l 488 912 l 625 1091 z "},"Ê":{"ha":814,"x_min":0,"x_max":0,"o":"m 763 0 l 763 217 l 317 217 l 317 324 l 727 324 l 727 530 l 317 530 l 317 625 l 754 625 l 754 843 l 51 843 l 51 0 z m 533 1090 l 283 1090 l 139 912 l 342 912 l 408 1005 l 474 912 l 676 912 z "},"Ë":{"ha":814,"x_min":0,"x_max":0,"o":"m 763 0 l 763 217 l 317 217 l 317 324 l 727 324 l 727 530 l 317 530 l 317 626 l 754 626 l 754 844 l 51 844 l 51 0 z m 285 1132 b 194 1020 235 1132 194 1081 b 285 908 194 957 235 908 b 374 1020 334 908 374 957 b 285 1132 374 1081 334 1132 z m 531 1132 b 440 1020 480 1132 440 1081 b 531 908 440 957 480 908 b 620 1020 580 908 620 957 b 531 1132 620 1081 580 1132 z "},"Ì":{"ha":453,"x_min":0,"x_max":0,"o":"m 290 1090 l 51 1090 l 188 912 l 371 912 z m 136 843 l 136 0 l 401 0 l 401 843 z "},"Í":{"ha":454,"x_min":0,"x_max":0,"o":"m 51 853 l 51 10 l 317 10 l 317 853 z m 165 1100 l 82 922 l 265 922 l 402 1100 z "},"Î":{"ha":640,"x_min":0,"x_max":0,"o":"m 445 1101 l 195 1101 l 51 923 l 254 923 l 320 1016 l 386 923 l 588 923 z m 187 854 l 187 11 l 452 11 l 452 854 z "},"Ï":{"ha":529,"x_min":0,"x_max":0,"o":"m 142 1147 b 51 1035 92 1147 51 1096 b 142 923 51 972 92 923 b 232 1035 191 923 232 972 b 142 1147 232 1096 191 1147 z m 131 859 l 131 15 l 397 15 l 397 859 z m 388 1147 b 297 1035 338 1147 297 1096 b 388 923 297 972 338 923 b 478 1035 437 923 478 972 b 388 1147 478 1096 437 1147 z "},"Ð":{"ha":999,"x_min":0,"x_max":0,"o":"m 513 853 l 125 853 l 125 511 l 51 511 l 51 351 l 125 351 l 125 10 l 513 10 b 947 431 736 10 947 69 b 513 853 947 793 736 853 z m 434 227 l 390 227 l 390 351 l 569 351 l 569 511 l 390 511 l 390 636 l 434 636 b 679 431 570 636 679 640 b 434 227 679 223 570 227 z "},"Ñ":{"ha":917,"x_min":0,"x_max":0,"o":"m 600 851 l 600 392 l 330 851 l 51 851 l 51 7 l 317 7 l 317 465 l 586 7 l 865 7 l 865 851 z m 548 1104 b 525 1057 548 1082 549 1057 b 341 1110 480 1057 431 1110 b 234 914 260 1110 234 1021 l 371 914 b 396 959 371 938 373 959 b 577 906 435 959 485 906 b 684 1104 671 906 684 1016 z "},"Ò":{"ha":1018,"x_min":0,"x_max":0,"o":"m 508 871 b 51 433 280 871 51 762 b 508 -7 51 102 280 -7 b 966 433 737 -7 966 102 b 508 871 966 762 737 871 z m 529 1101 l 290 1101 l 427 923 l 611 923 z m 508 208 b 319 433 385 208 319 296 b 508 656 319 568 385 656 b 697 433 632 656 697 568 b 508 208 697 296 632 208 z "},"Ó":{"ha":1018,"x_min":0,"x_max":0,"o":"m 508 870 b 51 431 280 870 51 761 b 508 -8 51 101 280 -8 b 966 431 737 -8 966 101 b 508 870 966 761 737 870 z m 508 207 b 319 431 385 207 319 295 b 508 654 319 566 385 654 b 697 431 632 654 697 566 b 508 207 697 295 632 207 z m 489 1100 l 406 922 l 589 922 l 726 1100 z "},"Ô":{"ha":1018,"x_min":0,"x_max":0,"o":"m 508 871 b 51 433 280 871 51 762 b 508 -7 51 102 280 -7 b 966 433 737 -7 966 102 b 508 871 966 762 737 871 z m 634 1101 l 384 1101 l 240 923 l 443 923 l 509 1016 l 575 923 l 777 923 z m 508 208 b 319 433 385 208 319 296 b 508 656 319 568 385 656 b 697 433 632 656 697 568 b 508 208 697 296 632 208 z "},"Õ":{"ha":1018,"x_min":0,"x_max":0,"o":"m 508 868 b 51 429 280 868 51 758 b 508 -11 51 99 280 -11 b 966 429 737 -11 966 99 b 508 868 966 758 737 868 z m 598 1104 b 575 1057 598 1082 599 1057 b 391 1110 531 1057 481 1110 b 284 914 310 1110 284 1021 l 421 914 b 446 959 421 938 424 959 b 627 906 485 959 535 906 b 734 1104 721 906 734 1016 z m 508 205 b 319 429 385 205 319 293 b 508 652 319 564 385 652 b 697 429 632 652 697 564 b 508 205 697 293 632 205 z "},"Ö":{"ha":1018,"x_min":0,"x_max":0,"o":"m 508 876 b 51 437 280 876 51 766 b 508 -3 51 107 280 -3 b 966 437 737 -3 966 107 b 508 876 966 766 737 876 z m 386 1147 b 295 1035 336 1147 295 1096 b 386 923 295 972 336 923 b 476 1035 435 923 476 972 b 386 1147 476 1096 435 1147 z m 508 213 b 319 437 385 213 319 301 b 508 660 319 572 385 660 b 697 437 632 660 697 572 b 508 213 697 301 632 213 z m 632 1147 b 541 1035 582 1147 541 1096 b 632 923 541 972 582 923 b 722 1035 681 923 722 972 b 632 1147 722 1096 681 1147 z "},"×":{"ha":600,"x_min":0,"x_max":0,"o":"m 549 578 l 444 683 l 301 540 l 156 683 l 51 578 l 195 435 l 51 291 l 156 186 l 301 330 l 444 186 l 549 291 l 406 435 z "},"Ø":{"ha":1017,"x_min":0,"x_max":0,"o":"m 861 737 l 906 788 l 825 898 l 754 816 b 508 868 680 852 594 868 b 51 429 280 868 51 758 b 156 122 51 291 92 191 l 111 69 l 192 -40 l 263 42 b 508 -11 337 5 423 -11 b 965 429 737 -11 965 99 b 861 737 965 568 925 667 z m 319 429 b 508 652 319 564 385 652 b 597 633 542 652 572 646 l 334 329 b 319 429 324 358 319 392 z m 508 205 b 420 224 475 205 445 212 l 683 529 b 697 429 693 500 697 467 b 508 205 697 293 632 205 z "},"Ù":{"ha":890,"x_min":0,"x_max":0,"o":"m 573 854 l 573 374 b 445 208 573 251 536 208 b 317 374 354 208 317 251 l 317 854 l 51 854 l 51 358 b 445 -7 51 26 237 -7 b 838 358 654 -7 838 26 l 838 854 z m 475 1101 l 237 1101 l 373 923 l 557 923 z "},"Ú":{"ha":890,"x_min":0,"x_max":0,"o":"m 573 853 l 573 372 b 445 207 573 249 536 207 b 317 372 354 207 317 249 l 317 853 l 51 853 l 51 357 b 445 -8 51 25 237 -8 b 838 357 654 -8 838 25 l 838 853 z m 435 1100 l 352 922 l 535 922 l 672 1100 z "},"Û":{"ha":890,"x_min":0,"x_max":0,"o":"m 573 854 l 573 374 b 445 208 573 251 536 208 b 317 374 354 208 317 251 l 317 854 l 51 854 l 51 358 b 445 -7 51 26 237 -7 b 838 358 654 -7 838 26 l 838 854 z m 570 1101 l 320 1101 l 177 923 l 379 923 l 446 1016 l 511 923 l 714 923 z "},"Ü":{"ha":890,"x_min":0,"x_max":0,"o":"m 573 859 l 573 378 b 445 213 573 255 536 213 b 317 378 354 213 317 255 l 317 859 l 51 859 l 51 362 b 445 -3 51 31 237 -3 b 838 362 654 -3 838 31 l 838 859 z m 322 1147 b 232 1035 272 1147 232 1096 b 322 923 232 972 272 923 b 412 1035 372 923 412 972 b 322 1147 412 1096 372 1147 z m 568 1147 b 478 1035 518 1147 478 1096 b 568 923 478 972 518 923 b 658 1035 617 923 658 972 b 568 1147 658 1096 617 1147 z "},"Ý":{"ha":993,"x_min":0,"x_max":0,"o":"m 652 853 l 497 539 l 342 853 l 51 853 l 364 309 l 364 10 l 630 10 l 630 309 l 942 853 z m 487 1100 l 404 922 l 587 922 l 724 1100 z "},"ß":{"ha":867,"x_min":0,"x_max":0,"o":"m 657 460 b 755 624 713 488 755 537 b 410 858 755 822 599 858 b 51 553 207 858 51 795 l 51 -3 l 290 -3 l 290 542 b 407 685 290 657 327 685 b 531 604 487 685 531 664 b 444 535 531 555 505 535 l 341 535 l 341 341 l 452 341 b 576 261 522 341 576 332 b 447 162 576 179 519 162 b 341 178 398 162 356 173 l 341 -3 b 483 -21 372 -9 432 -21 b 815 254 662 -21 815 15 b 657 460 815 388 744 440 z "},"à":{"ha":751,"x_min":0,"x_max":0,"o":"m 379 670 b 79 458 208 670 98 615 l 291 458 b 379 511 298 498 327 511 b 463 422 447 511 463 481 l 463 406 b 51 188 124 427 51 337 b 275 -7 51 55 129 -7 b 463 75 368 -7 428 31 l 463 11 l 700 11 l 700 422 b 379 670 700 634 549 670 z m 416 897 l 178 897 l 315 718 l 498 718 z m 463 187 b 345 135 437 157 397 135 b 279 193 315 135 279 143 b 463 257 279 259 345 264 z "},"á":{"ha":751,"x_min":0,"x_max":0,"o":"m 379 669 b 79 457 208 669 98 613 l 291 457 b 379 510 298 497 327 510 b 463 421 447 510 463 480 l 463 405 b 51 187 124 425 51 336 b 275 -8 51 54 129 -8 b 463 74 368 -8 428 30 l 463 10 l 700 10 l 700 421 b 379 669 700 633 549 669 z m 463 186 b 345 134 437 155 397 134 b 279 192 315 134 279 142 b 463 256 279 258 345 263 z m 376 895 l 293 717 l 477 717 l 613 895 z "},"â":{"ha":751,"x_min":0,"x_max":0,"o":"m 379 670 b 79 458 208 670 98 615 l 291 458 b 379 511 298 498 327 511 b 463 422 447 511 463 481 l 463 406 b 51 188 124 427 51 337 b 275 -7 51 55 129 -7 b 463 75 368 -7 428 31 l 463 11 l 700 11 l 700 422 b 379 670 700 634 549 670 z m 520 897 l 270 897 l 127 718 l 329 718 l 396 811 l 461 718 l 664 718 z m 463 187 b 345 135 437 157 397 135 b 279 193 315 135 279 143 b 463 257 279 259 345 264 z "},"ã":{"ha":751,"x_min":0,"x_max":0,"o":"m 379 666 b 79 454 208 666 98 611 l 291 454 b 379 507 298 494 327 507 b 463 418 447 507 463 477 l 463 403 b 51 184 124 423 51 334 b 275 -11 51 52 129 -11 b 463 71 368 -11 428 28 l 463 7 l 700 7 l 700 418 b 379 666 700 630 549 666 z m 484 899 b 461 852 484 877 485 852 b 277 905 417 852 368 905 b 170 709 196 905 170 816 l 307 709 b 332 755 307 733 310 755 b 513 701 371 755 422 701 b 620 899 608 701 620 811 z m 463 183 b 345 131 437 153 397 131 b 279 189 315 131 279 140 b 463 253 279 256 345 260 z "},"ä":{"ha":751,"x_min":0,"x_max":0,"o":"m 379 675 b 79 462 208 675 98 619 l 291 462 b 379 515 298 502 327 515 b 463 426 447 515 463 485 l 463 411 b 51 192 124 431 51 342 b 275 -3 51 60 129 -3 b 463 79 368 -3 428 36 l 463 15 l 700 15 l 700 426 b 379 675 700 638 549 675 z m 273 942 b 183 830 223 942 183 892 b 273 718 183 767 223 718 b 363 830 322 718 363 767 b 273 942 363 892 322 942 z m 463 191 b 345 139 437 161 397 139 b 279 197 315 139 279 148 b 463 261 279 264 345 268 z m 519 942 b 428 830 469 942 428 892 b 519 718 428 767 469 718 b 609 830 568 718 609 767 b 519 942 609 892 568 942 z "},"å":{"ha":751,"x_min":0,"x_max":0,"o":"m 379 677 b 79 465 208 677 98 622 l 291 465 b 379 518 298 505 327 518 b 463 429 447 518 463 488 l 463 413 b 51 195 124 434 51 345 b 275 0 51 63 129 0 b 463 82 368 0 428 39 l 463 18 l 700 18 l 700 429 b 379 677 700 641 549 677 z m 396 1052 b 261 882 318 1052 261 977 b 396 714 261 787 318 714 b 531 882 475 714 531 787 b 396 1052 531 977 475 1052 z m 463 194 b 345 142 437 164 397 142 b 279 200 315 142 279 151 b 463 264 279 266 345 271 z m 396 828 b 352 882 369 828 352 850 b 396 938 352 916 369 938 b 440 882 423 938 440 916 b 396 828 440 850 423 828 z "},"æ":{"ha":1203,"x_min":0,"x_max":0,"o":"m 707 271 l 1151 271 b 822 669 1165 570 977 669 b 614 611 748 669 673 652 b 379 669 558 658 474 669 b 79 457 208 669 98 614 l 292 457 b 379 510 298 497 327 510 b 464 422 448 510 464 480 l 464 405 b 51 187 124 426 51 336 b 293 -8 51 54 149 -8 b 556 101 396 -8 496 29 b 827 -8 623 24 726 -8 b 1143 228 970 -8 1110 51 l 927 228 b 827 169 907 192 876 169 b 707 271 756 169 720 211 z m 464 256 l 464 186 b 346 134 437 157 398 134 b 279 192 316 134 279 142 b 464 256 279 258 345 263 z m 708 398 b 822 492 721 452 754 492 b 928 398 883 492 914 457 z "},"ç":{"ha":789,"x_min":0,"x_max":0,"o":"m 400 173 b 280 322 318 173 280 236 b 400 473 280 410 318 473 b 515 382 464 473 501 437 l 738 382 b 400 661 712 595 556 661 b 51 322 233 661 51 584 b 329 -11 51 98 185 10 l 295 -68 l 295 -133 b 418 -149 340 -126 418 -107 b 359 -181 418 -173 400 -181 b 272 -161 328 -181 291 -170 l 272 -258 b 398 -278 307 -269 352 -278 b 579 -148 493 -278 579 -254 b 413 -52 579 -34 479 -33 l 436 -15 b 738 265 579 -5 714 67 l 515 265 b 400 173 501 209 464 173 z "},"è":{"ha":774,"x_min":0,"x_max":0,"o":"m 277 272 l 722 272 b 392 670 735 571 547 670 b 51 331 225 670 51 580 b 397 -7 51 83 227 -7 b 714 228 540 -7 681 52 l 497 228 b 397 170 478 193 446 170 b 277 272 326 170 290 212 z m 417 897 l 179 897 l 316 718 l 499 718 z m 392 493 b 498 398 452 493 484 457 l 278 398 b 392 493 291 453 324 493 z "},"é":{"ha":774,"x_min":0,"x_max":0,"o":"m 277 271 l 722 271 b 392 669 735 570 547 669 b 51 330 225 669 51 579 b 397 -8 51 82 227 -8 b 714 227 540 -8 681 51 l 497 227 b 397 169 478 192 446 169 b 277 271 326 169 290 211 z m 392 492 b 498 397 452 492 484 456 l 278 397 b 392 492 291 452 324 492 z m 368 895 l 285 717 l 468 717 l 605 895 z "},"ê":{"ha":774,"x_min":0,"x_max":0,"o":"m 277 272 l 722 272 b 392 670 735 571 547 670 b 51 331 225 670 51 580 b 397 -7 51 83 227 -7 b 714 228 540 -7 681 52 l 497 228 b 397 170 478 193 446 170 b 277 272 326 170 290 212 z m 515 897 l 265 897 l 122 718 l 324 718 l 391 811 l 456 718 l 659 718 z m 392 493 b 498 398 452 493 484 457 l 278 398 b 392 493 291 453 324 493 z "},"ë":{"ha":774,"x_min":0,"x_max":0,"o":"m 277 277 l 722 277 b 392 675 735 576 547 675 b 51 336 225 675 51 584 b 397 -3 51 88 227 -3 b 714 232 540 -3 681 56 l 497 232 b 397 174 478 197 446 174 b 277 277 326 174 290 217 z m 268 942 b 178 830 218 942 178 892 b 268 718 178 767 218 718 b 358 830 317 718 358 767 b 268 942 358 892 318 942 z m 392 497 b 498 402 452 497 484 461 l 278 402 b 392 497 291 458 324 497 z m 514 942 b 424 830 464 942 424 892 b 514 718 424 767 464 718 b 604 830 563 718 604 767 b 514 942 604 892 563 942 z "},"ì":{"ha":446,"x_min":0,"x_max":0,"o":"m 290 897 l 51 897 l 188 718 l 371 718 z m 157 11 l 395 11 l 395 653 l 157 653 z "},"í":{"ha":449,"x_min":0,"x_max":0,"o":"m 51 10 l 289 10 l 289 652 l 51 652 z m 160 895 l 77 717 l 261 717 l 398 895 z "},"î":{"ha":640,"x_min":0,"x_max":0,"o":"m 445 897 l 195 897 l 51 718 l 254 718 l 320 811 l 386 718 l 588 718 z m 201 11 l 438 11 l 438 653 l 201 653 z "},"ï":{"ha":529,"x_min":0,"x_max":0,"o":"m 142 930 b 51 818 92 930 51 879 b 142 706 51 755 92 706 b 232 818 191 706 232 755 b 142 930 232 879 191 930 z m 146 3 l 383 3 l 383 645 l 146 645 z m 388 930 b 297 818 338 930 297 879 b 388 706 297 755 338 706 b 478 818 437 706 478 755 b 388 930 478 879 437 930 z "},"ð":{"ha":811,"x_min":0,"x_max":0,"o":"m 516 808 l 583 864 l 533 955 l 413 852 b 147 893 319 883 224 893 l 125 730 b 259 721 168 730 213 728 l 211 681 l 262 589 l 376 687 b 541 500 456 653 520 595 b 345 579 528 521 461 579 b 51 300 200 579 51 515 b 392 -8 51 69 194 -8 b 760 363 617 -8 760 94 b 516 808 760 598 652 733 z m 395 190 b 283 294 341 190 283 207 b 395 392 283 381 345 392 b 517 294 444 392 517 389 b 395 190 517 199 448 190 z "},"ñ":{"ha":744,"x_min":0,"x_max":0,"o":"m 471 667 b 289 570 368 667 314 612 l 289 650 l 51 650 l 51 7 l 289 7 l 289 343 b 373 468 289 416 304 468 b 455 343 444 468 455 415 l 455 7 l 693 7 l 693 404 b 471 667 693 580 618 666 z m 461 899 b 438 852 461 877 462 852 b 254 905 394 852 345 905 b 147 709 173 905 147 816 l 284 709 b 309 755 284 733 287 755 b 490 701 348 755 399 701 b 597 899 585 701 597 811 z "},"ò":{"ha":801,"x_min":0,"x_max":0,"o":"m 401 670 b 51 331 234 670 51 593 b 401 -7 51 71 234 -7 b 750 331 569 -7 750 71 b 401 670 750 593 569 670 z m 440 897 l 202 897 l 339 718 l 522 718 z m 401 182 b 280 331 318 182 280 245 b 401 482 280 418 318 482 b 522 331 484 482 522 418 b 401 182 522 245 484 182 z "},"ó":{"ha":801,"x_min":0,"x_max":0,"o":"m 401 669 b 51 330 234 669 51 592 b 401 -8 51 70 234 -8 b 750 330 569 -8 750 70 b 401 669 750 592 569 669 z m 401 181 b 280 330 318 181 280 243 b 401 481 280 417 318 481 b 522 330 484 481 522 417 b 401 181 522 243 484 181 z m 381 895 l 298 717 l 481 717 l 618 895 z "},"ô":{"ha":801,"x_min":0,"x_max":0,"o":"m 401 670 b 51 331 234 670 51 593 b 401 -7 51 71 234 -7 b 750 331 569 -7 750 71 b 401 670 750 593 569 670 z m 526 897 l 276 897 l 132 718 l 335 718 l 401 811 l 467 718 l 669 718 z m 401 182 b 280 331 318 182 280 245 b 401 482 280 418 318 482 b 522 331 484 482 522 418 b 401 182 522 245 484 182 z "},"õ":{"ha":801,"x_min":0,"x_max":0,"o":"m 401 667 b 51 328 234 667 51 589 b 401 -11 51 67 234 -11 b 750 328 569 -11 750 67 b 401 667 750 589 569 666 z m 490 899 b 467 852 490 877 491 852 b 283 905 423 852 373 905 b 176 709 202 905 176 816 l 313 709 b 338 755 313 733 316 755 b 519 701 377 755 427 701 b 626 899 613 701 626 811 z m 401 178 b 280 328 318 178 280 241 b 401 479 280 415 317 479 b 522 328 484 479 522 415 b 401 178 522 241 484 178 z "},"ö":{"ha":801,"x_min":0,"x_max":0,"o":"m 401 675 b 51 336 234 675 51 597 b 401 -3 51 76 234 -3 b 750 336 569 -3 750 76 b 401 675 750 597 569 675 z m 278 942 b 187 830 228 942 187 892 b 278 718 187 767 228 718 b 368 830 327 718 368 767 b 278 942 368 892 327 942 z m 401 186 b 280 336 318 186 280 249 b 401 487 280 423 318 487 b 522 336 484 487 522 423 b 401 186 522 249 484 186 z m 524 942 b 433 830 474 942 433 892 b 524 718 433 767 474 718 b 614 830 573 718 614 767 b 524 942 614 892 573 942 z "},"÷":{"ha":657,"x_min":0,"x_max":0,"o":"m 51 498 l 51 349 l 606 349 l 606 498 z m 329 576 b 420 668 379 576 420 616 b 329 760 420 719 379 760 b 237 668 278 760 237 719 b 329 576 237 616 278 576 z m 329 272 b 237 179 278 272 237 231 b 329 87 237 128 278 87 b 420 179 379 87 420 128 b 329 272 420 231 379 272 z "},"ø":{"ha":801,"x_min":0,"x_max":0,"o":"m 669 574 l 716 627 l 657 705 l 593 631 b 400 674 535 662 467 674 b 51 335 233 674 51 596 b 131 97 51 226 82 150 l 86 44 l 144 -34 l 208 40 b 400 -4 266 8 334 -4 b 749 335 568 -4 749 75 b 669 574 749 443 719 521 z m 280 335 b 400 486 280 423 318 486 b 456 473 423 486 441 481 l 287 277 b 280 335 282 294 280 314 z m 400 185 b 344 197 378 185 360 189 l 514 394 b 521 335 519 376 521 357 b 400 185 521 248 484 185 z "},"ù":{"ha":744,"x_min":0,"x_max":0,"o":"m 273 -6 b 455 90 376 -6 430 48 l 455 11 l 693 11 l 693 653 l 455 653 l 455 317 b 371 193 455 245 440 193 b 289 317 300 193 289 246 l 289 653 l 51 653 l 51 257 b 273 -6 51 81 126 -6 z m 393 897 l 155 897 l 291 718 l 475 718 z "},"ú":{"ha":744,"x_min":0,"x_max":0,"o":"m 273 -7 b 455 89 376 -7 430 47 l 455 10 l 693 10 l 693 652 l 455 652 l 455 316 b 371 192 455 243 440 192 b 289 316 300 192 289 245 l 289 652 l 51 652 l 51 256 b 273 -7 51 80 126 -7 z m 363 895 l 280 717 l 463 717 l 600 895 z "},"û":{"ha":744,"x_min":0,"x_max":0,"o":"m 273 -20 b 455 76 376 -20 430 34 l 455 -3 l 693 -3 l 693 639 l 455 639 l 455 303 b 371 179 455 231 440 179 b 289 303 300 179 289 232 l 289 639 l 51 639 l 51 243 b 273 -20 51 67 126 -20 z m 498 883 l 248 883 l 104 704 l 307 704 l 373 797 l 439 704 l 641 704 z "},"ü":{"ha":744,"x_min":0,"x_max":0,"o":"m 273 -15 b 455 81 376 -15 430 39 l 455 1 l 693 1 l 693 644 l 455 644 l 455 308 b 371 183 455 235 440 183 b 289 308 300 183 289 236 l 289 644 l 51 644 l 51 247 b 273 -15 51 71 126 -15 z m 250 928 b 159 816 200 928 159 878 b 250 704 159 754 200 704 b 340 816 299 704 340 753 b 250 928 340 878 299 928 z m 496 928 b 405 816 446 928 405 878 b 496 704 405 754 446 704 b 586 816 545 704 586 753 b 496 928 586 878 545 928 z "},"ý":{"ha":807,"x_min":0,"x_max":0,"o":"m 511 652 l 407 305 l 295 652 l 51 652 l 297 14 l 206 -192 l 447 -192 l 755 652 z m 384 895 l 301 717 l 484 717 l 621 895 z "},"ÿ":{"ha":807,"x_min":0,"x_max":0,"o":"m 511 658 l 407 311 l 295 658 l 51 658 l 297 20 l 206 -186 l 447 -186 l 755 658 z m 285 942 b 194 830 235 942 194 892 b 285 718 194 767 235 718 b 374 830 334 718 374 767 b 285 942 374 892 334 942 z m 531 942 b 440 830 480 942 440 892 b 531 718 440 767 480 718 b 620 830 580 718 620 767 b 531 942 620 892 580 942 z "},"Œ":{"ha":1344,"x_min":0,"x_max":0,"o":"m 847 217 l 847 324 l 1257 324 l 1257 530 l 847 530 l 847 627 l 1285 627 l 1285 844 l 504 844 b 51 422 282 844 51 783 b 504 0 51 59 282 0 l 1293 0 l 1293 217 z m 582 217 b 319 422 446 217 319 213 b 582 627 319 629 446 627 z "},"œ":{"ha":1253,"x_min":0,"x_max":0,"o":"m 1201 280 b 871 677 1214 579 1026 677 b 639 601 788 677 703 656 b 400 677 574 657 487 677 b 51 339 233 677 51 600 b 400 0 51 78 233 0 b 640 77 487 0 575 22 b 876 0 704 23 791 0 b 1193 236 1019 0 1159 59 l 976 236 b 876 177 956 200 925 177 b 756 280 805 177 769 219 z m 400 189 b 280 339 318 189 280 252 b 400 489 280 427 318 489 b 521 339 484 489 521 427 b 400 189 521 252 484 189 z m 871 500 b 977 406 932 500 964 465 l 757 406 b 871 500 771 460 803 500 z "},"Ÿ":{"ha":993,"x_min":0,"x_max":0,"o":"m 652 837 l 497 522 l 342 837 l 51 837 l 364 292 l 364 -7 l 630 -7 l 630 292 l 942 837 z m 374 1125 b 284 1013 324 1125 284 1074 b 374 901 284 950 324 901 b 464 1013 424 901 464 950 b 374 1125 464 1074 424 1125 z m 620 1125 b 530 1013 570 1125 530 1074 b 620 901 530 950 570 901 b 710 1013 669 901 710 950 b 620 1125 710 1074 669 1125 z "},"—":{"ha":740,"x_min":0,"x_max":0,"o":"m 51 515 l 51 321 l 688 321 l 688 515 z "},"€":{"ha":1053,"x_min":0,"x_max":0,"o":"m 567 199 b 420 291 494 199 446 232 l 665 291 l 665 405 l 397 405 b 397 423 397 411 397 417 b 397 440 397 429 397 434 l 665 440 l 665 555 l 420 555 b 567 646 446 614 494 646 b 731 487 669 646 718 582 l 1001 487 b 567 862 972 767 779 862 b 141 555 375 862 191 782 l 51 555 l 51 440 l 129 440 b 128 423 129 434 128 429 b 129 405 128 417 129 411 l 51 405 l 51 291 l 141 291 b 567 -17 191 63 375 -17 b 1001 358 779 -17 972 80 l 731 358 b 567 199 718 264 669 199 z "},"™":{"ha":942,"x_min":0,"x_max":0,"o":"m 732 865 l 667 637 l 602 865 l 445 865 l 445 497 l 560 497 l 560 696 l 619 497 l 715 497 l 774 696 l 774 497 l 890 497 l 890 865 z m 51 770 l 163 770 l 163 497 l 278 497 l 278 770 l 390 770 l 390 865 l 51 865 z "},"←":{"ha":1119,"x_min":0,"x_max":0,"o":"m 51 428 l 382 97 l 506 221 l 385 342 l 1069 342 l 1069 517 l 385 517 l 506 638 l 382 761 z "},"→":{"ha":1119,"x_min":0,"x_max":0,"o":"m 1069 421 l 738 752 l 614 628 l 735 507 l 51 507 l 51 332 l 735 332 l 614 211 l 738 88 z "},"≈":{"ha":682,"x_min":0,"x_max":0,"o":"m 502 591 b 200 688 394 591 324 688 b 51 616 129 688 91 655 l 51 463 b 188 535 82 498 129 535 b 491 440 292 535 380 440 b 630 500 574 440 613 480 l 630 655 b 502 591 594 611 561 591 z m 502 338 b 200 437 394 338 324 437 b 51 364 129 437 91 402 l 51 210 b 188 282 82 246 129 282 b 491 188 292 282 380 188 b 630 247 574 188 613 227 l 630 402 b 502 338 594 359 561 338 z "},"≠":{"ha":658,"x_min":0,"x_max":0,"o":"m 607 463 l 607 612 l 500 612 l 573 731 l 464 731 l 391 612 l 51 612 l 51 463 l 298 463 l 249 384 l 51 384 l 51 234 l 157 234 l 85 116 l 194 116 l 267 234 l 607 234 l 607 384 l 359 384 l 408 463 z "},"":{"ha":658,"x_min":0,"x_max":0,"o":"m 51 500 l 51 350 l 607 350 l 607 500 z "}}}
